<svg width="128" height="128" xmlns="http://www.w3.org/2000/svg" xmlns:xlink="http://www.w3.org/1999/xlink"><defs><path id="a" d="M0 0h131v134H0z"/><linearGradient x1="22.552%" y1="20.622%" x2="73.243%" y2="75.135%" id="b"><stop stop-color="#668CFF" offset="0%"/><stop stop-color="#2952CC" offset="100%"/></linearGradient></defs><g transform="translate(0 -6)" fill="none" fill-rule="evenodd"><mask id="c" fill="#fff"><use xlink:href="#a"/></mask><path d="M107.212 131.683c0-29.05-11.806-55.243-30.987-74.293-19.177-19.028-45.57-30.76-74.849-30.76C-4.337 26.63-9 22.006-9 16.307-9 10.615-4.337 6 1.376 6 71.322 6 127.988 62.264 128 131.683c0 5.692-4.643 10.317-10.39 10.317-5.752 0-10.398-4.625-10.398-10.317" fill="url(#b)" fill-rule="nonzero" mask="url(#c)"/><path d="M64.393 130.706c0-17.453-7.044-33.18-18.473-44.62C34.468 74.646 18.746 67.6 1.305 67.6-4.388 67.601-9 62.993-9 57.308A10.301 10.301 0 0 1 1.305 47C47.53 47 85 84.471 85 130.706 85 136.393 80.395 141 74.694 141c-5.686 0-10.3-4.607-10.3-10.294" fill="url(#b)" fill-rule="nonzero" mask="url(#c)"/><path d="M25.245 135.627c-.037-15.38-12.49-27.844-27.854-27.873-5.75 0-10.391-4.644-10.391-10.372C-13 91.647-8.358 87-2.609 87c26.852 0 48.59 21.763 48.609 48.627C46 141.355 41.358 146 35.614 146c-5.721 0-10.369-4.645-10.369-10.373" fill="url(#b)" fill-rule="nonzero" mask="url(#c)"/></g></svg>