<svg width="42" height="60" xmlns="http://www.w3.org/2000/svg"><g fill="#FFD240"><path d="M11.02 47.139h19.293a4.282 4.282 0 0 0 4.276-4.277V12.316a4.281 4.281 0 0 0-4.276-4.277H11.021a4.281 4.281 0 0 0-4.277 4.277v30.546a4.282 4.282 0 0 0 4.277 4.277zM8.868 12.316c0-1.189.966-2.154 2.154-2.154h19.292c1.188 0 2.154.965 2.154 2.154v30.546a2.155 2.155 0 0 1-2.154 2.153H11.021a2.155 2.155 0 0 1-2.154-2.153V12.316z"/><circle cx="20.667" cy="52.508" r="2.572"/><path d="M7.805 60H33.53c4.13 0 7.491-3.361 7.491-7.492V7.492C41.02 3.362 37.66 0 33.529 0H7.805C3.674 0 .313 3.361.313 7.492v45.015C.313 56.64 3.674 60 7.805 60zM2.435 7.492a5.375 5.375 0 0 1 5.37-5.37H33.53a5.375 5.375 0 0 1 5.369 5.37v45.015a5.375 5.375 0 0 1-5.37 5.37H7.806a5.376 5.376 0 0 1-5.37-5.37V7.492z"/></g></svg>