<svg xmlns="http://www.w3.org/2000/svg" viewBox="0 0 40 40"><defs><style>.cls-1{fill:#fff}</style></defs><title>App-Icon-7</title><g id="Capa_2" data-name="Capa 2"><path class="cls-1" d="M0 20A19.27 19.27 0 0 1 5.86 5.86 19.27 19.27 0 0 1 20 0a19.27 19.27 0 0 1 14.14 5.86A19.27 19.27 0 0 1 40 20a19.27 19.27 0 0 1-5.86 14.14A19.27 19.27 0 0 1 20 40a19.27 19.27 0 0 1-14.14-5.86A19.27 19.27 0 0 1 0 20zm2.19 0a17.15 17.15 0 0 0 5.23 12.58A17.15 17.15 0 0 0 20 37.81a17.15 17.15 0 0 0 12.58-5.23A17.15 17.15 0 0 0 37.81 20a17.15 17.15 0 0 0-5.23-12.58A17.15 17.15 0 0 0 20 2.19 17.15 17.15 0 0 0 7.42 7.42 17.15 17.15 0 0 0 2.19 20zm5.63 4.3a.2.2 0 0 1 0-.31.85.85 0 0 1 .78-.23 1.36 1.36 0 0 1 .55.16 3.5 3.5 0 0 1 1.2 1.08 8 8 0 0 0 1.05 1.13 2.91 2.91 0 0 0 3.83.23 2.34 2.34 0 0 1 .51-.94 2.37 2.37 0 0 1 .66-.55q.31-.16 1.09-.47a14.54 14.54 0 0 1-4.18-.9 7.08 7.08 0 0 1-2.54-1.68 6.55 6.55 0 0 1-1.52-3.67A9.4 9.4 0 0 1 9.61 14a6.88 6.88 0 0 1 1.33-2.11 7 7 0 0 1 .23-4.45 8.11 8.11 0 0 1 4.53 1.7 17.12 17.12 0 0 1 8.12-.08 14.68 14.68 0 0 1 1.68-1 6.87 6.87 0 0 1 2.85-.66 8.42 8.42 0 0 1 .43 2 6.71 6.71 0 0 1-.12 2.19 7.2 7.2 0 0 1 1.87 5 8.87 8.87 0 0 1-.86 4.14 6.6 6.6 0 0 1-3 2.73 10.86 10.86 0 0 1-3.91.86 5.17 5.17 0 0 1 1.6 1.13 3.44 3.44 0 0 1 .64 1.89v2.46l.08 2.38a2.94 2.94 0 0 0 1.09 1.05.26.26 0 0 1 .16.35q-.08.23-.62.23a2.6 2.6 0 0 1-2.11-.94 1.79 1.79 0 0 1-.23-.94V28.2a1.14 1.14 0 0 0-.31-.9 1.52 1.52 0 0 0-.63-.35v4.92a3.08 3.08 0 0 0 .31 1.72 1.84 1.84 0 0 1 .39.78q.08.08-.12.12a1.51 1.51 0 0 1-.66-.12 1.93 1.93 0 0 1-1.41-1.05 4 4 0 0 1-.39-1.76v-4.84h-1v4.84a4.29 4.29 0 0 1-.39 1.8 2.2 2.2 0 0 1-2 1.17q-.23-.08-.23-.16a6.62 6.62 0 0 0 .47-.78 3.63 3.63 0 0 0 .2-.63 4.54 4.54 0 0 0 .12-1.09V27a1.26 1.26 0 0 0-.59.35 1.24 1.24 0 0 0-.27.9V32a1.79 1.79 0 0 1-.23.94 2.47 2.47 0 0 1-2.11.94q-.55 0-.62-.23a.22.22 0 0 1 0-.27 2.38 2.38 0 0 1 .35-.27 2.33 2.33 0 0 0 .31-.23 1.42 1.42 0 0 0 .47-.63 3 3 0 0 0 .12-1.64 7.88 7.88 0 0 1 0-1.72 4.52 4.52 0 0 1-4.14-.7 7.63 7.63 0 0 1-1.25-1.8 7.88 7.88 0 0 0-1.87-2z" id="Capa_1-2" data-name="Capa 1"/></g></svg>