<svg xmlns="http://www.w3.org/2000/svg" viewBox="0 0 40 40"><defs><style>.cls-1{fill:#513f79}.cls-2{fill:#fff}</style></defs><title>App-Icon-5</title><g id="Capa_2" data-name="Capa 2"><g id="Capa_1-2" data-name="Capa 1"><path class="cls-1" d="M0 34.84A5.16 5.16 0 0 0 5.16 40h29.68A5.16 5.16 0 0 0 40 34.84V5.16A5.16 5.16 0 0 0 34.84 0H5.16A5.16 5.16 0 0 0 0 5.16v29.68z"/><path class="cls-2" d="M16.59 17.69V12h5a7.76 7.76 0 0 1 1.37.12 3.43 3.43 0 0 1 1.17.42 2.26 2.26 0 0 1 .81.85 2.82 2.82 0 0 1 .31 1.39 2.56 2.56 0 0 1-.92 2.2 3.83 3.83 0 0 1-2.34.68h-5.4zm-5.33-9.8v24.22H23a12.38 12.38 0 0 0 3.17-.41 8.48 8.48 0 0 0 2.75-1.25 6.18 6.18 0 0 0 1.92-2.19 6.66 6.66 0 0 0 .71-3.17 6.71 6.71 0 0 0-1.1-3.88 5.82 5.82 0 0 0-3.34-2.26 6 6 0 0 0 2.46-2 5.31 5.31 0 0 0 .83-3.05 6.5 6.5 0 0 0-.57-2.9 4.65 4.65 0 0 0-1.57-1.8 6.81 6.81 0 0 0-2.44-1 15.08 15.08 0 0 0-3.15-.31H11.26zM16.59 28v-6.68h5.8a4.49 4.49 0 0 1 2.78.8 3.13 3.13 0 0 1 1.05 2.66 3.33 3.33 0 0 1-.32 1.56 2.56 2.56 0 0 1-.86 1 3.66 3.66 0 0 1-1.25.51 7.12 7.12 0 0 1-1.49.15h-5.7z"/></g></g></svg>