<svg xmlns="http://www.w3.org/2000/svg" viewBox="0 0 40 40"><defs><style>.cls-1{fill:#bd3c5e}.cls-2{fill:#fff}</style></defs><title>App-Icon-3</title><g id="Capa_2" data-name="Capa 2"><g id="Capa_1-2" data-name="Capa 1"><path class="cls-1" d="M36.37 0H3.63A3.63 3.63 0 0 0 0 3.63v32.74A3.63 3.63 0 0 0 3.63 40h32.74A3.63 3.63 0 0 0 40 36.37V3.63A3.63 3.63 0 0 0 36.37 0"/><path class="cls-2" d="M13.37 12.59a2.41 2.41 0 1 0-2.44-2.41 2.42 2.42 0 0 0 2.44 2.41M8.3 25.48a8.27 8.27 0 0 0-.22 1.81 3.22 3.22 0 0 0 3.59 3.53 5.72 5.72 0 0 0 4.85-3.15l-.72 2.9h4l2.3-9.22c.57-2.34 1.69-3.55 3.38-3.55a2 2 0 0 1 2.19 2.2 4.3 4.3 0 0 1-.18 1.29l-1.19 4.23a6.37 6.37 0 0 0-.25 1.8c0 2 1.19 3.49 3.66 3.49 2.12 0 3.81-1.36 4.74-4.64l-1.58-.61c-.79 2.19-1.47 2.59-2 2.59s-.87-.36-.87-1.08a4.77 4.77 0 0 1 .22-1.07l1.15-4.13a9.11 9.11 0 0 0 .4-2.62c0-3.09-1.87-4.7-4.13-4.7s-4.28 1.91-5.35 3.93l.79-3.61h-6.16L16.06 18h2.87l-1.77 7.09c-1.39 3.09-3.94 3.14-4.26 3.07-.53-.12-.86-.32-.86-1a6.78 6.78 0 0 1 .25-1.64L15 14.81H8.16L7.3 18h2.84L8.3 25.48"/></g></g></svg>