<svg xmlns="http://www.w3.org/2000/svg" viewBox="0 0 58.6 36"><defs><style>.cls-1{fill:#fff}</style></defs><title>App-Icon-6</title><g id="Capa_2" data-name="Capa 2"><path class="cls-1" d="M9 28c1.52-1.82 1.7-3.7.52-7.18-.75-2.21-2-3.9-1.07-5.27s3 0 1.31 1.91l.34.24c2.06.24 3.07-2.58 1.53-3.38-4.05-2.12-7.6 2-6 6.66.67 2 1.61 4.11.85 5.8a3.75 3.75 0 0 1-2.77 2.32c-1.77.09-.6-4 1.45-5 .18-.09.43-.21.19-.51a4.46 4.46 0 0 0-4.84 2.5C-2 30.81 5.2 32.55 9 28zm44.29-13.89c.58 1.43 1.46 2.85.94 4.1-.43 1.07-1 1.52-1.62 1.62-.88.15-.64-2.61.86-3.43.13-.07.33-.43.15-.64a3.42 3.42 0 0 0-3.56 2c-1.68 3.53 3.81 4.5 6.51 1 1.07-1.39 1.12-2.76.09-5.25C56 12 55 10.8 55.63 9.76s2.28-.15 1.07 1.33l.27.15c1.56.09 2.21-2 1-2.52-3.14-1.34-6.08 2-4.69 5.39zm-19.91-3.77c-1.09-.86-4.14.58-5 2.73-1.09 2.73-2.7 6.71-4.28 8.45s-1.83.42-1.67-.64c.39-2.49 2.82-8.26 4.14-9.88-.49-.73-3.71-.63-5.95 2.85-.83 1.31-2.74 5.68-4.86 9.12-.46.75-1 .22-.6-1.52a83.29 83.29 0 0 1 3.93-11.9 81.77 81.77 0 0 1 14.48-1.72c.55-.15.92-.64 0-.67a97.89 97.89 0 0 0-13.8.92A10.3 10.3 0 0 1 22.8 4a3.74 3.74 0 0 0-4.74 1.5 25.72 25.72 0 0 0-1.71 3A50.62 50.62 0 0 0 8 10.37C6.38 11 6.56 13 7.56 12.6a66.2 66.2 0 0 1 8-2.29 63.4 63.4 0 0 0-3.9 11.89c-.92 5.22 2.31 5.19 3.89 3.13 1.71-2.25 5.29-10.16 5.84-11 .16-.28.39-.13.27.12-4 8-3.65 11.06-.42 10.37 1.46-.31 4-2.82 4.63-4.11.13-.31.42-.28.36-.15-2.53 6.57-5.75 11.89-7.91 13.56-2 1.5-3.43-1.76 3.53-6.44 1-.7.55-1.65-.61-1.33-3.59.57-13.87 3.83-18.39 7-.34.24-.66.43-.64.92 0 .28.51.18.75 0a47.65 47.65 0 0 1 16.11-6 .33.33 0 0 0 .24 0c.25-.06.24.07.07.18-.37.21-.75.4-.83.43-3.7 1.45-5.93 4.63-5.14 6.26.67 1.4 4.29.89 6 0 4.2-2.28 7.26-6.75 9.34-12.92 1.82-5.47 4.11-11.67 4.65-11.85zM57.8 23c-6.84-.89-21.59.3-28.1 2-1.94.51-1.4 1.53-.42 1.34l.45-.1c5.35-1 18.33-2 25.9-.51.91.16 3.64-2.56 2.18-2.76zm-22.52-.8c1.91-1 4.74-6.85 6.6-10.09.13-.24.37 0 .24.12-4.71 8.11-2.71 9-.85 8.93 2.49-.15 4.78-3.73 5.29-4.53.21-.31.33-.06.21.16s-.55 1-1 1.92c-.57 1.27 0 1.76.52 2 .77.37 2.89.13 3.22-1.16-2.12 0 3-10 3.47-10.64-1.42-.82-3.61.07-4.6 2-2.13 4.22-3.92 7.61-5 7.67-2.18.12 2.5-9.4 3.26-9.7-.46-.67-3.43-.39-5.08 2.18-.6.92-4.23 7.36-5.13 8.42-1.58 1.88-1.7.27-1.25-1.61a22.1 22.1 0 0 1 .73-2.37 11.14 11.14 0 0 1 2.85-3.86C43.38 6.51 46 2.37 45 .74c-1-1.44-4-.8-6 2.18-3.65 5.47-7 13-7.45 16.39s2.05 3.69 3.74 2.84zm1.94-10c.16-.37.27-.48.55-1.1a52.18 52.18 0 0 1 5.11-9.18c.88-.92 2.12.33-.12 3.76a34.46 34.46 0 0 1-4.43 5.53c-.42.46-.79.85-1 1.07s-.25.12-.16-.09z" id="Capa_1-2" data-name="Capa 1"/></g></svg>