<svg xmlns="http://www.w3.org/2000/svg" viewBox="0 0 41.03 40"><defs><style>.cls-1{fill:url(#Degradado_sin_nombre_2)}.cls-2{fill:#e27e28}</style><radialGradient id="Degradado_sin_nombre_2" cx="-4010.26" cy="959.67" r=".01" gradientTransform="matrix(2291.67 0 0 -2218.75 9190220.36 2129291.32)" gradientUnits="userSpaceOnUse"><stop offset="0" stop-color="#40362a" stop-opacity=".98"/><stop offset="1" stop-color="#1e1203"/></radialGradient></defs><title>App-Icon-1</title><g id="Capa_2" data-name="Capa 2"><g id="Capa_1-2" data-name="Capa 1"><path class="cls-1" d="M1.71 1.71h37.61v36.58H1.71z"/><path class="cls-2" d="M1.71 1.71h37.61v36.58H1.71zM0 40h41V0H0zm26.87-25.74c0-.14.05-.21.21-.21h2.68c.14 0 .21.05.21.21v13.48c0 .14 0 .21-.21.21h-2.65c-.17 0-.22-.09-.22-.22V14.26zm-.19-3.88a1.74 1.74 0 0 1 3.49 0 1.63 1.63 0 0 1-1.78 1.74 1.61 1.61 0 0 1-1.71-1.74zM19 19.88c-.48-1.9-1.61-6-2-8-.36 2-1.26 5.38-2 8zm-4.75 2.77l-1.35 5.13c0 .14-.09.17-.26.17h-2.52c-.17 0-.21-.05-.17-.26l4.85-17a5.54 5.54 0 0 0 .2-1.41c0-.12.05-.17.14-.17h3.56c.12 0 .17 0 .21.17l5.44 18.44c0 .14 0 .22-.14.22h-2.84c-.14 0-.22 0-.26-.15l-1.4-5.15h-5.47z"/></g></g></svg>