<svg width="40" height="36" xmlns="http://www.w3.org/2000/svg"><path d="M37.837 1.962A14.32 14.32 0 0 0 30.611 0c-4.57 0-8.929 2.138-10.42 2.95a.443.443 0 0 1-.382 0C18.32 2.137 13.96 0 9.39 0c-3.206 0-5.7 1.067-7.227 1.963C.99 2.65.623 2.98.561 3.04.231 3.357 0 3.915 0 4.396V34.32c0 1.024.527 1.482 1.049 1.482.168 0 .417-.05.683-.274l1.099-.643a12.983 12.983 0 0 1 6.558-1.78c3.194 0 6.33 1.14 8.4 2.095l1.172.542c.292.167.66.258 1.04.258.379 0 .746-.091 1.038-.258l1.17-.54c2.07-.957 5.207-2.096 8.402-2.096 2.912 0 5.174.967 6.558 1.779l1.1.643c.265.225.514.274.683.274.522 0 1.048-.457 1.048-1.482V4.396c0-.48-.231-1.038-.56-1.356-.062-.059-.43-.39-1.603-1.078zM19.292 33.985c0 .13-.088.193-.197.143l-.755-.349c-2.19-1.01-5.52-2.217-8.951-2.217a14.327 14.327 0 0 0-7.229 1.963l-.556.326c-.104.061-.189.006-.189-.123V4.402a.58.58 0 0 1 .073-.196c.004-.003.316-.281 1.345-.885A12.986 12.986 0 0 1 9.39 1.543c4.154 0 8.256 1.971 9.712 2.75a.416.416 0 0 1 .192.337v29.355zm19.293-.257c0 .13-.085.184-.19.123l-.556-.326a14.316 14.316 0 0 0-7.229-1.964c-3.432 0-6.763 1.207-8.954 2.219l-.752.347c-.108.05-.197-.013-.197-.142V4.63c0-.13.086-.282.193-.338 1.456-.778 5.558-2.75 9.71-2.75 2.913 0 5.174.968 6.557 1.779 1.01.591 1.33.87 1.331.871a.53.53 0 0 1 .087.203v29.333z" fill="#FFC31A"/></svg>