<svg width="360" height="298" xmlns="http://www.w3.org/2000/svg"><defs><linearGradient x1="144.004%" y1="96.485%" x2="31.008%" y2="-47.458%" id="a"><stop stop-color="#2E71E6" offset="0%"/><stop stop-color="#538CF2" offset="100%"/></linearGradient></defs><path d="M800 7.837v71.546a7.847 7.847 0 0 1-2.85 6.014l-253.773 210.09a7.78 7.78 0 0 1-9.92 0l-90.623-74.904a7.811 7.811 0 0 1-2.834-6.02v-72.38c0-6.585 7.65-10.215 12.751-6.049l80.744 65.937a7.77 7.77 0 0 0 9.844 0L787.267 1.784C792.345-2.396 800 1.237 800 7.837" transform="rotate(180 400 148.637)" fill="url(#a)"/></svg>