<svg width="360" height="298" xmlns="http://www.w3.org/2000/svg"><defs><linearGradient x1="144.004%" y1="96.485%" x2="31.008%" y2="-47.458%" id="a"><stop stop-color="#2E71E6" offset="0%"/><stop stop-color="#538CF2" offset="100%"/></linearGradient></defs><path d="M394 286.837v71.546a7.847 7.847 0 0 1-2.85 6.014l-253.773 210.09a7.78 7.78 0 0 1-9.92 0l-90.623-74.904a7.811 7.811 0 0 1-2.834-6.02v-72.38c0-6.585 7.65-10.215 12.751-6.049l80.744 65.937a7.77 7.77 0 0 0 9.844 0l243.928-200.287c5.078-4.18 12.733-.547 12.733 6.053" transform="translate(-34 -279)" fill="url(#a)"/></svg>