<svg width="34" height="36" viewBox="0 0 34 36" xmlns="http://www.w3.org/2000/svg"><title>980A8CAD-96F7-4964-9C0E-8A37CDB99585</title><path d="M16.814.353c-5.025 0-9.112 4.088-9.112 9.113 0 5.024 4.087 9.112 9.112 9.112s9.113-4.088 9.113-9.112c0-5.025-4.088-9.113-9.113-9.113zm0 16.813c-4.245 0-7.7-3.455-7.7-7.7 0-4.246 3.455-7.7 7.7-7.7 4.246 0 7.7 3.454 7.7 7.7 0 4.245-3.454 7.7-7.7 7.7zm0 4.669C3.021 21.835 0 28.697 0 31.34c0 2.535 2.09 4.05 4.111 4.05h25.406c2.02 0 4.111-1.515 4.111-4.05 0-2.643-3.02-9.505-16.814-9.505zm12.703 12.143H4.11c-1.308 0-2.698-.924-2.698-2.638 0-2.1 2.83-8.092 15.401-8.092 12.572 0 15.401 5.993 15.401 8.092 0 1.714-1.39 2.638-2.698 2.638z" fill="#FFD240"/></svg>