<svg xmlns="http://www.w3.org/2000/svg" viewBox="0 0 40 40"><defs><style>.cls-1{fill:#5356d6}</style></defs><title>Instagram-Icon</title><g id="Capa_2" data-name="Capa 2"><g id="Capa_1-2" data-name="Capa 1"><path class="cls-1" d="M20 15.13a5 5 0 1 0 5 4.95 4.95 4.95 0 0 0-5-4.95z"/><path class="cls-1" d="M31.62 11.32a4.65 4.65 0 0 0-1.11-1.71A4.56 4.56 0 0 0 28.8 8.5 8.14 8.14 0 0 0 26 8c-1.56-.07-2-.09-6-.09s-4.44 0-6 .09a8 8 0 0 0-2.76.51 4.6 4.6 0 0 0-1.7 1.11 4.58 4.58 0 0 0-1.12 1.71 8.4 8.4 0 0 0-.51 2.76c-.07 1.57-.08 2-.08 6s0 4.44.08 6a8.4 8.4 0 0 0 .51 2.76 4.66 4.66 0 0 0 1.12 1.71 4.61 4.61 0 0 0 1.7 1.11 8.53 8.53 0 0 0 2.76.51c1.57.07 2 .09 6 .09s4.44 0 6-.09a8.41 8.41 0 0 0 2.76-.51 4.56 4.56 0 0 0 1.71-1.11 4.65 4.65 0 0 0 1.11-1.71 7.9 7.9 0 0 0 .51-2.76c.08-1.57.09-2 .09-6s0-4.43-.09-6a7.9 7.9 0 0 0-.47-2.77zM20 27.71a7.63 7.63 0 1 1 7.63-7.63A7.62 7.62 0 0 1 20 27.71zm8-13.78a1.78 1.78 0 1 1 1.78-1.78A1.78 1.78 0 0 1 28 13.93z"/><path class="cls-1" d="M39.85 10.14A13.45 13.45 0 0 0 39 5.61a7.65 7.65 0 0 0-1.81-2.81 7.58 7.58 0 0 0-2.8-1.8 13.77 13.77 0 0 0-4.54-.86C27.28 0 26.51 0 20 0s-7.29 0-9.86.14A13.37 13.37 0 0 0 5.61 1 7.62 7.62 0 0 0 2.8 2.8 7.62 7.62 0 0 0 1 5.61a13.38 13.38 0 0 0-.84 4.53C0 12.71 0 13.49 0 20s0 7.29.14 9.86A13.38 13.38 0 0 0 1 34.39a7.51 7.51 0 0 0 1.82 2.8A7.65 7.65 0 0 0 5.61 39a13.64 13.64 0 0 0 4.53.84c2.57.16 3.34.16 9.86.16s7.28 0 9.85-.14a13.71 13.71 0 0 0 4.54-.86A8.16 8.16 0 0 0 39 34.39a13.45 13.45 0 0 0 .83-4.53C40 27.28 40 26.51 40 20s0-7.29-.15-9.86zm-5 16.07a10.85 10.85 0 0 1-.69 3.61 7.35 7.35 0 0 1-1.72 2.63 7.14 7.14 0 0 1-2.63 1.71 10.73 10.73 0 0 1-3.61.69c-1.58.08-2.09.09-6.12.09s-4.54 0-6.13-.09a10.84 10.84 0 0 1-3.61-.69A7.56 7.56 0 0 1 6 29.82a10.83 10.83 0 0 1-.69-3.61c-.08-1.58-.09-2.09-.09-6.13s0-4.54.09-6.12A10.73 10.73 0 0 1 6 10.35a7.14 7.14 0 0 1 1.67-2.63A7.34 7.34 0 0 1 10.3 6a11.37 11.37 0 0 1 3.61-.69C15.5 5.24 16 5.22 20 5.22s4.54 0 6.13.09a11 11 0 0 1 3.6.69 7.17 7.17 0 0 1 2.67 1.72 7.18 7.18 0 0 1 1.72 2.63 10.74 10.74 0 0 1 .69 3.65c.07 1.58.09 2.09.09 6.12s-.02 4.5-.09 6.09z"/></g></g></svg>