<svg xmlns="http://www.w3.org/2000/svg" viewBox="0 0 185.48 17.46"><defs><style>.cls-1{fill:#73de91}</style></defs><title>Lines</title><g id="Capa_2" data-name="Capa 2"><g id="Capa_1-2" data-name="Capa 1"><rect class="cls-1" x="45.93" width="52.99" height="4.65" rx="2.11" ry="2.11" transform="rotate(180 72.425 2.325)"/><rect class="cls-1" x="118.35" width="52.99" height="4.65" rx="2.11" ry="2.11" transform="rotate(180 144.85 2.325)"/><rect class="cls-1" x="14.13" width="26.5" height="4.65" rx="2.11" ry="2.11" transform="rotate(-180 27.38 2.325)"/><rect class="cls-1" x="104.22" width="8.83" height="4.65" rx="2.11" ry="2.11" transform="rotate(180 108.64 2.325)"/><rect class="cls-1" x="176.65" width="8.83" height="4.65" rx="2.11" ry="2.11" transform="rotate(180 181.065 2.325)"/><rect class="cls-1" width="8.83" height="4.65" rx="2.11" ry="2.11"/><rect class="cls-1" x="37.15" y="12.81" width="26.5" height="4.65" rx="2.11" ry="2.11" transform="rotate(-180 50.4 15.135)"/><rect class="cls-1" x="68.95" y="12.81" width="8.83" height="4.65" rx="2.11" ry="2.11" transform="rotate(180 73.36 15.135)"/><rect class="cls-1" x="83.02" y="12.81" width="52.99" height="4.65" rx="2.11" ry="2.11" transform="rotate(-180 109.52 15.135)"/><rect class="cls-1" x="141.32" y="12.81" width="8.83" height="4.65" rx="2.11" ry="2.11" transform="rotate(180 145.735 15.135)"/><rect class="cls-1" x="23.02" y="12.81" width="8.83" height="4.65" rx="2.11" ry="2.11"/></g></g></svg>