<svg xmlns="http://www.w3.org/2000/svg" width="612" height="792" viewBox="0 0 612 792"><title>Logo</title><g fill="#FFF"><path d="M186.515 601.355c-12.306 21.243-66.423 59.282-130.241 26.363C-8.982 593.9-8.668 517.866 13.473 481.622s47.516-48.998 80.301-53.893c34.851-5.12 68.803 16.886 82.322 25.464a86.316 86.316 0 0 0 45.989 11.542.583.583 0 0 1 .583.719 12.081 12.081 0 0 1-10.824 8.758c-22.455 1.392-34.851-4.761-56.273-12.8-48.998-18.458-93.909-7.545-116.768 34.492-27.396 50.255 2.425 102.487 40.914 120.541 33.435 15.828 73.173 9.339 99.837-16.303 2.515-2.56 4.491-2.919 5.704-2.56a2.56 2.56 0 0 1 1.257 3.773zm344.151-280.873a67.369 67.369 0 0 1 16.662-32.92c10.464-11.407 21.153-14.686 20.794-2.829-.539 16.886-12.485 63.773-11.273 90.046a32.784 32.784 0 0 0 7.141 21.018c16.617 20.21 44.417.539 45.989-1.841 3.817-5.749 2.29-14.641-5.569-9.476-62.875 34.087-9.836-99.433-11.318-125.346-.539-8.982-3.054-13.473-9.701-16.752-18.324-8.713-38.938 20.434-46.707 32.83a1.527 1.527 0 0 1-2.829-.719 81.667 81.667 0 0 0-1.662-11.273c-2.156-11.048-12.62-16.842-20.21-8.533a6.51 6.51 0 0 0-2.111 4.491c-.009.09-.009.18 0 .269 2.874 10.329-.674 62.022-.674 62.022-4.491 46.348-15.539 46.079-23.174 41.453-8.533-7.365-8.578-18.548-6.782-29.372a67.07 67.07 0 0 0 .943-8.668c.719-11.093-12.575-10.913-14.327-9.611a1.526 1.526 0 0 0-.629 1.123 222.618 222.618 0 0 1-6.647 44.911c-2.335 8.982-6.198 15.09-11.138 17.695a12.303 12.303 0 0 1-10.24.449 21.153 21.153 0 0 1-12.665-19.132c-.584-30.09 7.5-52.77 23.354-65.48 10.195-8.713 19.177-7.68 25.016-5.524a24.12 24.12 0 0 1 8.533 5.793 37.72 37.72 0 0 1 8.533 17.56c.116.886.406 1.741.853 2.515.404.489.931.862 1.527 1.078a2.83 2.83 0 0 0 3.817-1.707v-.225a33.104 33.104 0 0 0-1.482-19.177 35.562 35.562 0 0 0-19.581-18.503 37.503 37.503 0 0 0-28.114 1.347c-28.294 11.632-36.513 50.48-41.992 86.004-3.054 19.94-12.081 31.438-18.818 35.569a9.208 9.208 0 0 1-7.814 1.347 10.597 10.597 0 0 1-5.344-9.431c.674-56.363 17.47-76.663 25.15-84.253a12.53 12.53 0 0 0 2.425-3.144 5.076 5.076 0 0 0 .404-4.177 3.233 3.233 0 0 0-1.841-1.841 2.694 2.694 0 0 0-2.246 0c-29.237 9.431-35.3 42.71-39.656 70.645-1.213 7.814-2.515 15.135-4.222 22.141-5.479 22.77-14.686 37.815-26.452 30.225-4.491-3.009-7.77-13.069-6.871-22.905a237.347 237.347 0 0 1 5.883-35.614 152.185 152.185 0 0 0 5.389-27.979c.249-6.32-4.672-11.645-10.992-11.895a18.59 18.59 0 0 0-.236-.007 7.949 7.949 0 0 0-6.332.943 6.692 6.692 0 0 0-2.919 5.659v2.605c-3.099 38.309-11.228 82.546-25.914 105.81a136.875 136.875 0 0 1-8.578 11.991c-.359 1.482 3.907 1.886 3.907 1.886a151.015 151.015 0 0 0 23.533-24.387 1.168 1.168 0 0 1 1.976 0 31.434 31.434 0 0 0 14.551 11.991 33.593 33.593 0 0 0 21.288.269 45.497 45.497 0 0 0 23.174-23.982 1.527 1.527 0 0 1 2.201-.719 37.622 37.622 0 0 0 6.826 3.458c16.527 6.243 31.438-4.042 42.037-29.012a1.526 1.526 0 0 1 2.559-.359 33.33 33.33 0 0 0 13.743 10.285c12.44 4.491 27.935 0 40.15-18.548a1.527 1.527 0 0 1 2.111-.404 31.434 31.434 0 0 0 17.964 5.299 30.987 30.987 0 0 0 24.432-11.362 38.671 38.671 0 0 0 6.737-15.854c2.922-13.11 7.458-37.766 7.458-37.766zM218.581 556.13l1.931-.808a.628.628 0 0 1 .629.988c-6.377 6.287-17.47 17.56-22.455 22.455a1.078 1.078 0 0 1-1.796-.943c1.527-7.32 4.985-23.982 6.243-31.438a2.293 2.293 0 0 1 1.347-1.707c2.111-.943 3.458-1.482 4.491-.808s.674 2.111.225 4.491c-.449 2.38-1.078 5.794 1.527 7.859 2.603 2.066 5.478.988 7.858-.089zm35.345-378.464l-29.731 9.656a376.742 376.742 0 0 0-6.198-16.078c-2.505-6.238.398-13.338 6.557-16.033l6.288-2.74c6.285-2.776 13.63.067 16.406 6.352.108.245.208.493.3.744a449.719 449.719 0 0 1 6.378 18.099z"/><path d="M226.485 548.854a.36.36 0 0 1-.449 0 8.131 8.131 0 0 0-7.276.853c-2.111.943-3.458 1.482-4.491.808s-.674-2.111-.225-4.491c.449-2.38 1.078-5.794-1.527-7.859a5.074 5.074 0 0 0-4.491-.943.72.72 0 0 1-.764-.988c56.588-120.226 49.267-240.722 24.701-325.559l29.506-7.859c54.344 186.605-25.373 328.837-34.984 346.038zm1.348-350.933l1.213 2.874a1.797 1.797 0 0 0 2.201 1.123l26.048-7.77a1.797 1.797 0 0 0 1.213-2.201l-1.033-3.458a1.797 1.797 0 0 0-2.246-1.168l-26.183 8.353a1.796 1.796 0 0 0-1.217 2.23l.004.017z"/></g></svg>