<svg width="62" height="40" xmlns="http://www.w3.org/2000/svg"><path d="M54.249 35.589a16.544 16.544 0 0 1-9.322 2.854 16.46 16.46 0 0 1-7.535-1.8 16.735 16.735 0 0 1-5.383-4.36 17.874 17.874 0 0 0 2.696-5.798 11.221 11.221 0 0 0 10.222 6.593c2.259 0 4.436-.666 6.296-1.928a11.173 11.173 0 0 0 3.732-4.252l4.985 2.057a16.542 16.542 0 0 1-5.691 6.634zm-29.58 1.055a16.46 16.46 0 0 1-7.534 1.799 16.538 16.538 0 0 1-9.39-2.9 16.53 16.53 0 0 1-5.694-6.738l5.006-2.007a11.167 11.167 0 0 0 3.736 4.321 11.17 11.17 0 0 0 6.342 1.96c6.178 0 11.203-5.007 11.203-11.162a16.733 16.733 0 0 1 .028-.956 16.382 16.382 0 0 1 3.29-8.96 16.603 16.603 0 0 1 3.318-3.305 16.484 16.484 0 0 1 9.953-3.304c3.345 0 6.568.987 9.322 2.854a16.542 16.542 0 0 1 5.691 6.634l-4.985 2.057a11.172 11.172 0 0 0-3.732-4.252 11.176 11.176 0 0 0-6.296-1.929c-6.178 0-11.204 5.007-11.204 11.161a16.34 16.34 0 0 1-3.317 9.916 16.726 16.726 0 0 1-5.736 4.81zm-7.534-10.487c2.346 0 4.255-1.902 4.255-4.24V7.251l5.414-2.171v15.815l-.007.149-.005.097-.006.168-.003.092-.004.178-.002.081-.002.257c0 5.296-4.324 9.604-9.64 9.604a9.61 9.61 0 0 1-5.456-1.685 9.613 9.613 0 0 1-3.167-3.622l5.032-2.017a4.239 4.239 0 0 0 3.59 1.96zM33.723 7.69a18.16 18.16 0 0 0-5.356 6.81V4.453l5.356-2.147V7.69zm6.948 14.227c0 2.338 1.91 4.24 4.256 4.24a4.246 4.246 0 0 0 3.567-1.925l5.014 2.069a9.619 9.619 0 0 1-8.581 5.22c-5.316 0-9.64-4.308-9.64-9.604 0-5.295 4.324-9.603 9.64-9.603a9.618 9.618 0 0 1 8.58 5.22l-4.45 1.836-.563.233a4.232 4.232 0 0 0-1.526-1.409 4.268 4.268 0 0 0-2.041-.516c-2.347 0-4.256 1.902-4.256 4.24zm6.744 1.027a2.685 2.685 0 0 1-2.488 1.656 2.69 2.69 0 0 1-2.692-2.683 2.69 2.69 0 0 1 2.692-2.682c1.093 0 2.07.65 2.488 1.656l.299.72 1.077-.445L62 15.716l-.3-.72a18.09 18.09 0 0 0-6.572-8.037 18.106 18.106 0 0 0-10.201-3.124c-3.454 0-6.757.95-9.64 2.758V0l-15.46 6.199v15.718a2.69 2.69 0 0 1-2.692 2.683 2.68 2.68 0 0 1-2.498-1.68l-.292-.723L0 27.948l.292.723a18.078 18.078 0 0 0 6.567 8.154A18.099 18.099 0 0 0 17.135 40c2.903 0 5.677-.663 8.246-1.97a18.31 18.31 0 0 0 5.65-4.48 18.308 18.308 0 0 0 5.65 4.48A18.013 18.013 0 0 0 44.927 40c3.66 0 7.187-1.08 10.201-3.124a18.09 18.09 0 0 0 6.573-8.037l.299-.72-14.286-5.895-.3.72z" fill="#FFD240" fill-rule="evenodd"/></svg>