<svg width="40" height="40" xmlns="http://www.w3.org/2000/svg"><g fill="#FFC31A"><path d="M27.881 7.909a4.18 4.18 0 0 0-2.977 1.233 4.215 4.215 0 0 0 0 5.954 4.181 4.181 0 0 0 2.976 1.232 4.18 4.18 0 0 0 2.976-1.232 4.215 4.215 0 0 0 0-5.954 4.178 4.178 0 0 0-2.975-1.233zm1.975 6.186c-.527.529-1.23.82-1.976.82a2.797 2.797 0 0 1 .001-5.59 2.772 2.772 0 0 1 1.976.817 2.8 2.8 0 0 1 0 3.953z"/><path d="M39.382 4.295c-.242-.786-.53-1.43-.543-1.457-.296-.66-1.017-1.381-1.678-1.678-.026-.012-.66-.296-1.441-.538A13.617 13.617 0 0 0 31.695 0C24.503 0 18.458 6 14.25 11.9L8.006 9.817c-.777-.258-1.8-.016-2.38.563L.675 15.331c-.548.549-.778 1.223-.63 1.849.148.626.655 1.126 1.39 1.37l7.384 2.462c-.77 1.506-1.02 2.12-1.035 2.156-.411 1.024-.123 2.438.657 3.217l5.173 5.173c.523.522 1.36.846 2.187.846.373 0 .72-.063 1.03-.188.037-.015.648-.264 2.157-1.036l2.461 7.385c.245.736.745 1.243 1.371 1.39.124.03.25.045.377.045.512 0 1.032-.235 1.471-.675l4.951-4.952c.58-.58.822-1.603.562-2.38l-2.078-6.237c7.078-5.033 14.038-12.52 11.28-21.46zM1.881 17.208c-.256-.085-.429-.217-.46-.354-.033-.136.063-.331.253-.522l4.953-4.952c.201-.201.664-.311.933-.22l5.85 1.95a65.83 65.83 0 0 0-3.135 5.16c-.298.544-.56 1.03-.795 1.472l-7.6-2.534zm26.958 15.233c.09.27-.02.731-.22.932l-4.953 4.951c-.191.192-.387.288-.523.254-.136-.031-.268-.204-.354-.46l-2.533-7.6c.436-.232.916-.49 1.452-.784a66.537 66.537 0 0 0 5.182-3.14l1.949 5.847zm-7.81-3.947c-3.441 1.883-4.714 2.404-4.726 2.409a1.362 1.362 0 0 1-.503.086c-.452 0-.929-.174-1.187-.433L9.44 25.384c-.382-.38-.547-1.187-.345-1.688.005-.012.53-1.296 2.42-4.747C15.1 12.4 22.49 1.416 31.695 1.416c1.197 0 2.41.188 3.605.558.695.215 1.276.474 1.282.476.342.155.813.624.966.967.004.006.265.593.482 1.296 3.326 10.78-9.224 19.527-17 23.78zm-8.381 5.571c-1.579.788-6.026 2.487-7.613.899-1.587-1.587.11-6.034.899-7.613a.707.707 0 0 0-1.266-.634c-.337.675-3.22 6.663-.634 9.248.786.786 1.888 1.067 3.059 1.067 2.677 0 5.719-1.467 6.188-1.701a.707.707 0 0 0-.633-1.266z"/></g></svg>