<svg width="41" height="40" viewBox="0 0 41 40" xmlns="http://www.w3.org/2000/svg"><title>BC40D334-E3DB-42E5-925B-40C2FA786417</title><g fill="#FFC31A"><path d="M37.94 5.261c-3.254.804-6.266.836-8.904.093-2.522-.709-4.768-2.144-6.672-4.264-.532-.59-1.21-.916-1.91-.916s-1.377.326-1.908.917C16.57 3.288 14.23 4.748 11.593 5.43c-2.567.665-5.485.606-8.623-.168-.908-.224-1.791-.008-2.35.571-.422.437-.64 1.053-.618 1.739.241 7.022 1.664 13.132 4.228 18.158 3.181 6.237 8.133 10.884 14.716 13.812.413.183.948.284 1.509.284.56 0 1.096-.101 1.507-.284 6.668-2.964 11.66-7.691 14.838-14.05 2.489-4.979 3.87-11.007 4.108-17.92.023-.685-.196-1.302-.618-1.739-.56-.579-1.444-.796-2.35-.572zm-2.434 19.584c-3.024 6.05-7.778 10.55-14.132 13.375-.45.2-1.391.2-1.84 0-6.273-2.79-10.988-7.214-14.016-13.149-2.467-4.836-3.836-10.74-4.07-17.55-.01-.292.063-.528.212-.682.175-.182.422-.22.6-.22.114 0 .236.016.363.048 3.373.832 6.532.888 9.332.164 2.919-.755 5.499-2.36 7.667-4.773.513-.571 1.151-.572 1.666 0 2.091 2.327 4.566 3.905 7.357 4.69 2.88.81 6.143.782 9.642-.082a1.58 1.58 0 0 1 .363-.047c.177 0 .425.038.6.22.149.153.222.39.212.682-.23 6.704-1.562 12.532-3.956 17.324z"/><path d="M29.962 11.977a.723.723 0 0 0-1.015.123l-10.18 12.995c-.075.096-.158.148-.234.148-.059-.002-.16-.053-.234-.15l-4.578-5.972a.723.723 0 1 0-1.148.88l4.578 5.972c.347.452.847.713 1.374.716h.008c.523 0 1.023-.255 1.373-.702l10.18-12.995a.723.723 0 0 0-.124-1.015z"/></g></svg>